<?xml version="1.0" standalone="yes"?>
<svg xmlns="http://www.w3.org/2000/svg" width="500" height="500">
<path style="fill:#feffff; stroke:none;" d="M0 0L0 500L500 500L500 0L0 0z"/>
<path style="fill:#09a4ff; stroke:none;" d="M247 90.4282C198.276 96.2462 155.055 116.541 133.309 164C93.4386 251.013 163.835 358.335 262 346.715C321.961 339.617 371.963 293.402 377.83 232C384.599 161.157 323.543 81.2886 247 90.4282z"/>
<path style="fill:#feffff; stroke:none;" d="M244 92.4244C197.399 98.543 157.875 119.161 135.969 163C92.4724 250.049 166.969 356.63 264 344.714C326.26 337.067 376.66 283.554 376.66 220C376.66 152.598 315.65 83.0168 244 92.4244z"/>
<path style="fill:#09a4ff; stroke:none;" d="M205 204L206 204L206 229C192.413 229.037 179.415 234.755 176 249L177 249C187.839 233.657 204.349 236.816 220 241C205.51 216.823 269.122 211.796 256 242C275.467 232.913 299.145 228.762 312 251L305 258C325.381 250.095 339.089 253.202 357 265C352.834 252.441 338.29 246.399 326 245.171C322.07 244.778 316.89 246.411 313.213 245.227C309.95 244.176 308.143 239.409 305.895 237.04C302.876 233.859 298.275 232.012 295.603 228.621C291.75 223.731 293 212.92 293 207L294 207C295.841 218.455 321.867 211.433 330 208C326.749 190.746 321.515 162.412 308.61 149.519C302.389 143.303 291.935 141.386 284 138.2C278.174 135.86 272.848 130.697 267 129.028C262.461 127.732 255.838 130.021 251 129.999C245.879 129.977 239.874 127.126 235 127.888C231.097 128.498 227.533 131.995 224 133.68C213.004 138.924 195.942 144.123 189.352 155.004C182.735 165.93 177.692 178.915 173.667 191C172.29 195.133 169.403 200.751 171.833 204.957C175.205 210.793 195.384 219.7 201.581 215.168C204.9 212.741 204.922 207.675 205 204z"/>
<path style="fill:#feffff; stroke:none;" d="M249 167C247.682 169.267 246.39 171.535 245.468 174.002C240.374 187.616 261.225 186.938 253.047 173.005C251.801 170.881 250.573 168.878 249 167M229 179C226.669 182.994 222.581 188.943 224.745 193.769C226.897 198.566 234.789 197.164 235.342 191.981C235.792 187.759 231.3 182.314 229 179z"/>
<path style="fill:#09a4ff; stroke:none;" d="M245 179L251 184L251 183L245 179z"/>
<path style="fill:#feffff; stroke:none;" d="M269 179C267.817 181.261 266.361 183.53 265.659 186.002C261.732 199.813 280.857 198.995 272.997 185.005C271.792 182.86 270.57 180.875 269 179z"/>
<path style="fill:#09a4ff; stroke:none;" d="M225 191L229 196L229 195L225 191M266 193L269 196L266 193M141 270C145.936 266.749 150.405 263.189 156 261.066C164.123 257.982 173.443 260.306 175 250C160.966 251.783 147.038 256.01 141 270M203 265C217.408 257.637 229.963 258.107 245 263C234.955 249.076 211.286 249.161 203 265M358 270C344.436 297.425 318.643 291.049 297 279C298.631 282.427 304.595 287.742 304.308 291.424C303.928 296.291 296.877 300.553 293 302.33C277.513 309.428 266.407 304.375 255 293C262.276 291.905 267.775 287.948 272 282C255.862 286.405 246.302 287.448 230 283L245 293C226.673 308.857 203.16 310.733 185 293L196 283C178.985 289.979 149.77 293.857 142 271L141 271C141.002 286.864 150.545 295.603 166 298.384C170.425 299.181 175.781 297.994 179.961 299.603C184.243 301.253 187.074 306.084 191.001 308.532C200.015 314.154 211.46 316.419 222 315.961C228.005 315.7 234.456 314.464 240 312.124C243.02 310.85 247.195 307.27 250.576 307.633C255.017 308.111 259.519 312.889 264 314.215C278.594 318.536 300.709 315.567 306 299C320.666 303.122 339.498 302.066 350.957 290.907C356.001 285.994 360.947 277.088 358 270z"/>
<path style="fill:#f4ac7e; stroke:none;" d="M199 346L200 347L199 346M201 346L202 347L201 346z"/>
<path style="fill:#9b5c4d; stroke:none;" d="M202 346L202 347L206 347L202 346z"/>
<path style="fill:#f4ac7e; stroke:none;" d="M206 346L207 347L206 346M195 347L196 348L195 347z"/>
<path style="fill:#9b5c4d; stroke:none;" d="M196 347L197 348L196 347z"/>
<path style="fill:#0e0a08; stroke:none;" d="M194 351L190 355C186.149 358.115 186.957 363.606 188 368L189 368L195 358L205 360C210.255 355.223 215.355 364.997 219 367C219 358.836 218.2 352.348 210 348.366C205.898 346.374 194.701 345.199 194 351z"/>
<path style="fill:#9b5c4d; stroke:none;" d="M208 347L209 348L208 347z"/>
<path style="fill:#f4ac7e; stroke:none;" d="M193 348L194 349L193 348z"/>
<path style="fill:#9b5c4d; stroke:none;" d="M210 348L211 349L210 348z"/>
<path style="fill:#f4ac7e; stroke:none;" d="M211 348L212 349L211 348M192 349L193 350L192 349M212 349L214 351L214 349L212 349z"/>
<path style="fill:#9b5c4d; stroke:none;" d="M192.667 350.333L193.333 350.667L192.667 350.333z"/>
<path style="fill:#f4ac7e; stroke:none;" d="M190 351L191 352L190 351z"/>
<path style="fill:#9b5c4d; stroke:none;" d="M214 351L215 352L214 351M189 352L190 353L189 352M216 353L217 354L216 353z"/>
<path style="fill:#f4ac7e; stroke:none;" d="M188 354L189 355L188 354z"/>
<path style="fill:#9b5c4d; stroke:none;" d="M189 354L190 355L189 354z"/>
<path style="fill:#f4ac7e; stroke:none;" d="M217 354L218 355L217 354z"/>
<path style="fill:#09a4ff; stroke:none;" d="M131 355L131 383L137 383L137 372L149 372L149 383L155 383L155 355C147.851 355.557 149 361.179 149 367L137 367L137 355L131 355M161 355L170 383L176 383C176.03 372.409 182.045 364.499 186 355C176.629 355.112 177.674 362.381 172 368C170.802 361.281 168.398 355.243 161 355M222 355L222 383L228 383L228 366C233.238 372.054 237.253 382.335 246 383L246 355L241 355L241 373C235.475 366.522 231.431 355.312 222 355M279 383L279 368L266 368L266 372L274 372C263.907 390.986 251.276 361.114 266.003 360.056C270.54 359.729 274.211 363.842 279 364C269.891 337.282 236.227 373.21 261.001 382.851C266.447 384.97 273.156 382.399 279 383M286 355L286 383C291.596 383 299.885 384.521 304.956 381.821C312.952 377.563 313.295 361.943 305.892 357.009C300.59 353.476 292.069 355 286 355M317 383L323 383L323 373C331.185 373.006 333.97 374.476 334 383L340 383C339.996 377.319 341.101 363.551 338.138 359.133C335.345 354.969 321.575 352.124 318.028 356.603C314.192 361.446 317 376.925 317 383M345 355C348.955 364.5 354.97 372.409 355 383L361 383L370 355C362.395 355.25 360.588 361.315 359 368L357 368C355.012 360.73 353.224 355.098 345 355z"/>
<path style="fill:#f4ac7e; stroke:none;" d="M187 356L188 357L187 356M218 356L219 357L218 356z"/>
<path style="fill:#9b5c4d; stroke:none;" d="M187.333 357.667L187.667 358.333L187.333 357.667M194 358L192 361L194 358M196 361L203 360C200.204 358.577 197.983 358.461 196 361M205 358L204 361L205 358z"/>
<path style="fill:#f4ac7e; stroke:none;" d="M207 358L191 360L190 370L192 370L195 367L195 366L192 366C194.499 361.738 198.501 361.738 201 366L197 366L197 367C201.924 369.706 204.22 370.006 209 367L209 366L205 366C207.218 362.217 209.913 362.34 214 363L212 367L216 370C217.507 363.247 212.155 360.921 207 358M219 358L220 359L219 358z"/>
<path style="fill:#9b5c4d; stroke:none;" d="M210 360L210 361L214 361L210 360M219 359L219 364L220 364L219 359z"/>
<path style="fill:#feffff; stroke:none;" d="M291 360L291 378C294.281 378 298.849 378.759 301.772 376.972C306.358 374.168 306.343 363.974 301.772 361.179C298.772 359.345 294.362 360 291 360M323 360L323 368C335.324 367.991 335.324 360.009 323 360z"/>
<path style="fill:#9b5c4d; stroke:none;" d="M190 361L191 362L190 361M214.333 361.667L214.667 362.333L214.333 361.667M189 362L189 365L190 365L189 362M194 362L195 363L194 362z"/>
<path style="fill:#0e0a08; stroke:none;" d="M192 366L200 366C198.385 361.15 194.294 362.076 192 366M206 366L214 366C211.706 362.076 207.615 361.15 206 366z"/>
<path style="fill:#9b5c4d; stroke:none;" d="M211 362L212 363L211 362M192 363L193 364L192 363M200 363L200 366L201 366L200 363M205 363L205 366L206 366L205 363M213 363L214 364L213 363z"/>
<path style="fill:#f4ac7e; stroke:none;" d="M219 364L220 365L219 364z"/>
<path style="fill:#9b5c4d; stroke:none;" d="M194 365L194 366L199 366L194 365M207 365L207 366L212 367L207 365M187 366L188 367L187 366z"/>
<path style="fill:#f4ac7e; stroke:none;" d="M185 367C185.208 375.644 193.189 390.365 203 390.847C212.378 391.309 222.738 375.456 221 367L219 367C211.332 377.112 211.183 372.634 201 371C196.941 379.018 190.864 372.502 188 367L185 367z"/>
<path style="fill:#9b5c4d; stroke:none;" d="M193 367L192 369L193 367z"/>
<path style="fill:#0e0a08; stroke:none;" d="M189 369C190.932 371.671 193.765 376.507 197.776 375.149C201.769 373.797 200.995 368.019 196.941 367.458C194.425 367.109 191.489 368.62 189 369z"/>
<path style="fill:#9b5c4d; stroke:none;" d="M207 367L206 369L207 367z"/>
<path style="fill:#0e0a08; stroke:none;" d="M217 369C214.795 368.586 212.315 367.134 210.044 367.458C202.89 368.476 210.988 382.2 217 369z"/>
<path style="fill:#9b5c4d; stroke:none;" d="M217 367L217 370L218 370L219 367L217 367M188.667 368.333L189.333 368.667L188.667 368.333z"/>
<path style="fill:#feffff; stroke:none;" d="M222.333 368.667L222.667 369.333L222.333 368.667z"/>
<path style="fill:#9b5c4d; stroke:none;" d="M189 370L190 371L189 370M201 370L201 371L206 372L201 370M190.667 371.333L191.333 371.667L190.667 371.333M200 373L201 374L200 373M214 373L215 374L214 373M194 375L195 376L194 375M198 375L199 376L198 375M212 375L213 376L212 375M202.667 377.333L203.333 377.667L202.667 377.333M196 380L196 381L203 383L203 384L200 384L200 385C205.155 385.945 207.94 384.106 211 380L208 383L196 380z"/>
<path style="fill:#feffff; stroke:none;" d="M208 380L209 381L208 380M199 381L199 382L208 382L199 381z"/>
<path style="fill:#0e0a08; stroke:none;" d="M198 382L199 383L198 382M207 382L208 383L207 382M199 383L199 384L203 384L199 383M205.667 383.333L206.333 383.667L205.667 383.333z"/>
<path style="fill:#09a4ff; stroke:none;" d="M118 406L118 418L121 418L121 413L125 413L125 411L121 411L121 408L126 408L126 406L118 406M174 406L174 418L177 418L177 411L180 418L182 418L177 406L174 406M222 406L222 418L225 418L225 413L229 413L229 411L225 411L225 408L230 408L230 406L222 406M320 414C312.364 415.829 312.069 408.425 320 410C317.354 405.205 310.724 405.603 310.573 412C310.419 418.479 317.402 418.708 320 414M327 406L327 418L330 418L330 406L327 406M267 407C266.285 411.494 266.138 416.388 271 418L271 411L271 410L271 409L269 407L267 407M133 409L133 418L135 418L138 409L133 409M152 417L152 416L147 415L147 414L153 414C148.166 402.619 140.156 420.154 152 417M165 415L165 416L160 415C163.396 420.221 169.303 415.105 162 412L162 411L167 412C162.227 407.182 158.334 412.545 165 415M237 412L242 411C236.822 415.698 237.685 417.913 245 418C244.006 413.891 241.839 405.177 237 412M252 410L257 415L257 416L252 415C255.396 420.221 261.303 415.105 254 412L254 411L259 412L252 410M345 417L345 416L340 415L340 414L346 414C341.166 402.619 333.156 420.154 345 417M353 412L357 411L353 413C353.728 417.362 355.824 417.863 360 418C359.985 413.709 357.542 405.071 353 412M368 409L368 418L370 418L370 411L373 418L375 418C374.978 411.839 374.368 409.558 368 409M91 415L100 412C96.1135 412.163 92.2708 410.53 91 415z"/>
<path style="fill:#feffff; stroke:none;" d="M147 413L150 411L147 413M340 413L343 411L340 413z"/>
<path style="fill:#09a4ff; stroke:none;" d="M393 415L402 412C398.113 412.163 394.271 410.53 393 415M200 412L200 414L204 414L204 412L200 412M288 412L288 414L293 414L293 412L288 412z"/>
<path style="fill:#feffff; stroke:none;" d="M239 416L242 414L239 416M355 416L358 414L355 416z"/>
</svg>
